<svg width="248" height="248" viewBox="0 0 248 248" fill="none" xmlns="http://www.w3.org/2000/svg">
<g id="Group 3">
<path id="Ellipse 14" d="M248 124C248 156.887 234.936 188.427 211.681 211.681C188.427 234.936 156.887 248 124 248C91.1132 248 59.5733 234.936 36.3188 211.681C13.0643 188.427 4.96578e-06 156.887 0 124L124 124H248Z" fill="url(#paint0_linear_74_1835)"/>
<path id="Ellipse 15" d="M248 0C248 32.8868 234.936 64.4267 211.681 87.6812C188.427 110.936 156.887 124 124 124C91.1132 124 59.5733 110.936 36.3188 87.6813C13.0643 64.4267 4.96578e-06 32.8869 0 1.87235e-05L248 0Z" fill="url(#paint1_linear_74_1835)"/>
</g>
<defs>
<linearGradient id="paint0_linear_74_1835" x1="124" y1="0" x2="124" y2="248" gradientUnits="userSpaceOnUse">
<stop stop-color="#FF6427"/>
<stop offset="1" stop-color="#FF3737"/>
</linearGradient>
<linearGradient id="paint1_linear_74_1835" x1="124" y1="0" x2="124" y2="124" gradientUnits="userSpaceOnUse">
<stop stop-color="#FF6427"/>
<stop offset="1" stop-color="#FF3737"/>
</linearGradient>
</defs>
</svg>
