<svg width="608" height="1087" viewBox="0 0 608 1087" fill="none" xmlns="http://www.w3.org/2000/svg">
<path d="M48 409C48 441.887 34.9358 473.427 11.6812 496.681C-11.5733 519.936 -43.1131 533 -76 533C-108.887 533 -140.427 519.936 -163.681 496.681C-186.936 473.427 -200 441.887 -200 409L-76 409H48Z" fill="url(#paint0_linear_74_1815)"/>
<path d="M48 285C48 317.887 34.9357 349.427 11.6812 372.681C-11.5733 395.936 -43.1131 409 -76 409C-108.887 409 -140.427 395.936 -163.681 372.681C-186.936 349.427 -200 317.887 -200 285L48 285Z" fill="url(#paint1_linear_74_1815)"/>
<path d="M484 683C484 666.716 480.793 650.592 474.561 635.547C468.329 620.503 459.196 606.833 447.681 595.319C436.167 583.804 422.497 574.671 407.453 568.439C392.408 562.207 376.284 559 360 559L360 683L484 683Z" fill="url(#paint2_linear_74_1815)"/>
<path d="M484 683C500.284 683 516.408 679.793 531.453 673.561C546.497 667.329 560.167 658.196 571.681 646.681C583.196 635.167 592.329 621.497 598.561 606.453C604.793 591.408 608 575.284 608 559H484L484 683Z" fill="url(#paint3_linear_74_1815)"/>
<path d="M484 683C484 699.284 487.207 715.408 493.439 730.453C499.671 745.497 508.804 759.167 520.319 770.681C531.833 782.196 545.503 791.329 560.547 797.561C575.592 803.793 591.716 807 608 807V683L484 683Z" fill="url(#paint4_linear_74_1815)"/>
<path d="M484 683C467.716 683 451.592 686.207 436.547 692.439C421.503 698.671 407.833 707.804 396.319 719.319C384.804 730.833 375.671 744.503 369.439 759.547C363.207 774.592 360 790.716 360 807L484 807L484 683Z" fill="url(#paint5_linear_74_1815)"/>
<path d="M204 963C204 946.716 200.793 930.592 194.561 915.547C188.329 900.503 179.196 886.833 167.681 875.319C156.167 863.804 142.497 854.671 127.453 848.439C112.408 842.207 96.2839 839 80 839L80 963L204 963Z" fill="url(#paint6_linear_74_1815)"/>
<path d="M204 963C220.284 963 236.408 959.793 251.453 953.561C266.497 947.329 280.167 938.196 291.681 926.681C303.196 915.167 312.329 901.497 318.561 886.453C324.793 871.408 328 855.284 328 839H204L204 963Z" fill="url(#paint7_linear_74_1815)"/>
<path d="M204 963C204 979.284 207.207 995.408 213.439 1010.45C219.671 1025.5 228.804 1039.17 240.319 1050.68C251.833 1062.2 265.503 1071.33 280.547 1077.56C295.592 1083.79 311.716 1087 328 1087V963L204 963Z" fill="url(#paint8_linear_74_1815)"/>
<path d="M204 963C187.716 963 171.592 966.207 156.547 972.439C141.503 978.671 127.833 987.804 116.319 999.319C104.804 1010.83 95.6705 1024.5 89.439 1039.55C83.2074 1054.59 80 1070.72 80 1087L204 1087L204 963Z" fill="url(#paint9_linear_74_1815)"/>
<path d="M-76 124C-76 107.716 -79.2074 91.5916 -85.4389 76.5472C-91.6705 61.5029 -100.804 47.8332 -112.319 36.3187C-123.833 24.8043 -137.503 15.6705 -152.547 9.43893C-167.592 3.20735 -183.716 -2.13538e-06 -200 0L-200 124L-76 124Z" fill="url(#paint10_linear_74_1815)"/>
<path d="M-76 124C-59.7161 124 -43.5916 120.793 -28.5473 114.561C-13.5029 108.329 0.166763 99.1957 11.6812 87.6813C23.1957 76.1668 32.3295 62.4971 38.5611 47.4528C44.7926 32.4084 48 16.2839 48 1.62606e-05H-76L-76 124Z" fill="url(#paint11_linear_74_1815)"/>
<path d="M-76 124C-76 140.284 -72.7926 156.408 -66.5611 171.453C-60.3295 186.497 -51.1957 200.167 -39.6812 211.681C-28.1668 223.196 -14.4971 232.329 0.547241 238.561C15.5916 244.793 31.7161 248 48 248V124L-76 124Z" fill="url(#paint12_linear_74_1815)"/>
<path d="M-76 124C-92.2839 124 -108.408 127.207 -123.453 133.439C-138.497 139.671 -152.167 148.804 -163.681 160.319C-175.196 171.833 -184.329 185.503 -190.561 200.547C-196.793 215.592 -200 231.716 -200 248L-76 248L-76 124Z" fill="url(#paint13_linear_74_1815)"/>
<path d="M204 621C204 655.242 176.242 683 142 683C107.758 683 80 655.242 80 621C80 586.758 107.758 559 142 559C176.242 559 204 586.758 204 621Z" fill="url(#paint14_radial_74_1815)"/>
<path d="M328 621C328 655.242 300.242 683 266 683C231.758 683 204 655.242 204 621C204 586.758 231.758 559 266 559C300.242 559 328 586.758 328 621Z" fill="url(#paint15_radial_74_1815)"/>
<path d="M328 745C328 779.242 300.242 807 266 807C231.758 807 204 779.242 204 745C204 710.758 231.758 683 266 683C300.242 683 328 710.758 328 745Z" fill="url(#paint16_radial_74_1815)"/>
<path d="M204 745C204 779.242 176.242 807 142 807C107.758 807 80 779.242 80 745C80 710.758 107.758 683 142 683C176.242 683 204 710.758 204 745Z" fill="url(#paint17_radial_74_1815)"/>
<path d="M266 683C266 717.242 238.242 745 204 745C169.758 745 142 717.242 142 683C142 648.758 169.758 621 204 621C238.242 621 266 648.758 266 683Z" fill="url(#paint18_radial_74_1815)"/>
<path d="M204 62C204 96.2417 176.242 124 142 124C107.758 124 80 96.2417 80 62C80 27.7583 107.758 0 142 0C176.242 0 204 27.7583 204 62Z" fill="url(#paint19_radial_74_1815)"/>
<path d="M328 62C328 96.2417 300.242 124 266 124C231.758 124 204 96.2417 204 62C204 27.7583 231.758 0 266 0C300.242 0 328 27.7583 328 62Z" fill="url(#paint20_radial_74_1815)"/>
<path d="M328 186C328 220.242 300.242 248 266 248C231.758 248 204 220.242 204 186C204 151.758 231.758 124 266 124C300.242 124 328 151.758 328 186Z" fill="url(#paint21_radial_74_1815)"/>
<path d="M204 186C204 220.242 176.242 248 142 248C107.758 248 80 220.242 80 186C80 151.758 107.758 124 142 124C176.242 124 204 151.758 204 186Z" fill="url(#paint22_radial_74_1815)"/>
<path d="M266 124C266 158.242 238.242 186 204 186C169.758 186 142 158.242 142 124C142 89.7583 169.758 62 204 62C238.242 62 266 89.7583 266 124Z" fill="url(#paint23_radial_74_1815)"/>
<path d="M269.244 401.491C267.858 402.877 265.611 402.877 264.225 401.491L206.509 343.774C205.123 342.389 205.123 340.142 206.509 338.756L264.225 281.039C265.611 279.654 267.858 279.654 269.244 281.039L326.96 338.756C328.346 340.142 328.346 342.389 326.96 343.774L269.244 401.491Z" fill="url(#paint24_radial_74_1815)"/>
<path d="M138.756 401.491C140.142 402.877 142.389 402.877 143.774 401.491L201.491 343.774C202.877 342.389 202.877 340.142 201.491 338.756L143.774 281.039C142.389 279.654 140.142 279.654 138.756 281.039L81.0394 338.756C79.6535 340.142 79.6535 342.389 81.0394 343.774L138.756 401.491Z" fill="url(#paint25_radial_74_1815)"/>
<path d="M138.756 526.961C140.142 528.346 142.389 528.346 143.774 526.961L201.491 469.244C202.877 467.858 202.877 465.611 201.491 464.226L143.774 406.509C142.389 405.123 140.142 405.123 138.756 406.509L81.0394 464.226C79.6535 465.611 79.6535 467.858 81.0394 469.244L138.756 526.961Z" fill="url(#paint26_radial_74_1815)"/>
<path d="M264.225 526.961C265.611 528.346 267.858 528.346 269.244 526.961L326.96 469.244C328.346 467.858 328.346 465.611 326.96 464.226L269.244 406.509C267.858 405.123 265.611 405.123 264.225 406.509L206.509 464.226C205.123 465.611 205.123 467.858 206.509 469.244L264.225 526.961Z" fill="url(#paint27_radial_74_1815)"/>
<defs>
<linearGradient id="paint0_linear_74_1815" x1="-76" y1="285" x2="-76" y2="533" gradientUnits="userSpaceOnUse">
<stop stop-color="#FF6427"/>
<stop offset="1" stop-color="#FF3737"/>
</linearGradient>
<linearGradient id="paint1_linear_74_1815" x1="-76" y1="285" x2="-76" y2="409" gradientUnits="userSpaceOnUse">
<stop stop-color="#FF6427"/>
<stop offset="1" stop-color="#FF3737"/>
</linearGradient>
<linearGradient id="paint2_linear_74_1815" x1="484" y1="559" x2="484" y2="807" gradientUnits="userSpaceOnUse">
<stop stop-color="#0C4DF0"/>
<stop offset="1" stop-color="#80A3F9"/>
</linearGradient>
<linearGradient id="paint3_linear_74_1815" x1="484" y1="559" x2="484" y2="807" gradientUnits="userSpaceOnUse">
<stop stop-color="#0C4DF0"/>
<stop offset="1" stop-color="#80A3F9"/>
</linearGradient>
<linearGradient id="paint4_linear_74_1815" x1="484" y1="559" x2="484" y2="807" gradientUnits="userSpaceOnUse">
<stop stop-color="#0C4DF0"/>
<stop offset="1" stop-color="#80A3F9"/>
</linearGradient>
<linearGradient id="paint5_linear_74_1815" x1="484" y1="559" x2="484" y2="807" gradientUnits="userSpaceOnUse">
<stop stop-color="#0C4DF0"/>
<stop offset="1" stop-color="#80A3F9"/>
</linearGradient>
<linearGradient id="paint6_linear_74_1815" x1="204" y1="839" x2="204" y2="1087" gradientUnits="userSpaceOnUse">
<stop stop-color="#0C4DF0"/>
<stop offset="1" stop-color="#80A3F9"/>
</linearGradient>
<linearGradient id="paint7_linear_74_1815" x1="204" y1="839" x2="204" y2="1087" gradientUnits="userSpaceOnUse">
<stop stop-color="#0C4DF0"/>
<stop offset="1" stop-color="#80A3F9"/>
</linearGradient>
<linearGradient id="paint8_linear_74_1815" x1="204" y1="839" x2="204" y2="1087" gradientUnits="userSpaceOnUse">
<stop stop-color="#0C4DF0"/>
<stop offset="1" stop-color="#80A3F9"/>
</linearGradient>
<linearGradient id="paint9_linear_74_1815" x1="204" y1="839" x2="204" y2="1087" gradientUnits="userSpaceOnUse">
<stop stop-color="#0C4DF0"/>
<stop offset="1" stop-color="#80A3F9"/>
</linearGradient>
<linearGradient id="paint10_linear_74_1815" x1="-76" y1="0" x2="-76" y2="248" gradientUnits="userSpaceOnUse">
<stop stop-color="#0C4DF0"/>
<stop offset="1" stop-color="#80A3F9"/>
</linearGradient>
<linearGradient id="paint11_linear_74_1815" x1="-76" y1="0" x2="-76" y2="248" gradientUnits="userSpaceOnUse">
<stop stop-color="#0C4DF0"/>
<stop offset="1" stop-color="#80A3F9"/>
</linearGradient>
<linearGradient id="paint12_linear_74_1815" x1="-76" y1="0" x2="-76" y2="248" gradientUnits="userSpaceOnUse">
<stop stop-color="#0C4DF0"/>
<stop offset="1" stop-color="#80A3F9"/>
</linearGradient>
<linearGradient id="paint13_linear_74_1815" x1="-76" y1="0" x2="-76" y2="248" gradientUnits="userSpaceOnUse">
<stop stop-color="#0C4DF0"/>
<stop offset="1" stop-color="#80A3F9"/>
</linearGradient>
<radialGradient id="paint14_radial_74_1815" cx="0" cy="0" r="1" gradientUnits="userSpaceOnUse" gradientTransform="translate(204 683) rotate(90) scale(124)">
<stop stop-color="#FB73B6"/>
<stop offset="1" stop-color="#F73C99"/>
</radialGradient>
<radialGradient id="paint15_radial_74_1815" cx="0" cy="0" r="1" gradientUnits="userSpaceOnUse" gradientTransform="translate(204 683) rotate(90) scale(124)">
<stop stop-color="#FB73B6"/>
<stop offset="1" stop-color="#F73C99"/>
</radialGradient>
<radialGradient id="paint16_radial_74_1815" cx="0" cy="0" r="1" gradientUnits="userSpaceOnUse" gradientTransform="translate(204 683) rotate(90) scale(124)">
<stop stop-color="#FB73B6"/>
<stop offset="1" stop-color="#F73C99"/>
</radialGradient>
<radialGradient id="paint17_radial_74_1815" cx="0" cy="0" r="1" gradientUnits="userSpaceOnUse" gradientTransform="translate(204 683) rotate(90) scale(124)">
<stop stop-color="#FB73B6"/>
<stop offset="1" stop-color="#F73C99"/>
</radialGradient>
<radialGradient id="paint18_radial_74_1815" cx="0" cy="0" r="1" gradientUnits="userSpaceOnUse" gradientTransform="translate(204 683) rotate(90) scale(124)">
<stop stop-color="#FB73B6"/>
<stop offset="1" stop-color="#F73C99"/>
</radialGradient>
<radialGradient id="paint19_radial_74_1815" cx="0" cy="0" r="1" gradientUnits="userSpaceOnUse" gradientTransform="translate(204 124) rotate(90) scale(124)">
<stop stop-color="#FB73B6"/>
<stop offset="1" stop-color="#F73C99"/>
</radialGradient>
<radialGradient id="paint20_radial_74_1815" cx="0" cy="0" r="1" gradientUnits="userSpaceOnUse" gradientTransform="translate(204 124) rotate(90) scale(124)">
<stop stop-color="#FB73B6"/>
<stop offset="1" stop-color="#F73C99"/>
</radialGradient>
<radialGradient id="paint21_radial_74_1815" cx="0" cy="0" r="1" gradientUnits="userSpaceOnUse" gradientTransform="translate(204 124) rotate(90) scale(124)">
<stop stop-color="#FB73B6"/>
<stop offset="1" stop-color="#F73C99"/>
</radialGradient>
<radialGradient id="paint22_radial_74_1815" cx="0" cy="0" r="1" gradientUnits="userSpaceOnUse" gradientTransform="translate(204 124) rotate(90) scale(124)">
<stop stop-color="#FB73B6"/>
<stop offset="1" stop-color="#F73C99"/>
</radialGradient>
<radialGradient id="paint23_radial_74_1815" cx="0" cy="0" r="1" gradientUnits="userSpaceOnUse" gradientTransform="translate(204 124) rotate(90) scale(124)">
<stop stop-color="#FB73B6"/>
<stop offset="1" stop-color="#F73C99"/>
</radialGradient>
<radialGradient id="paint24_radial_74_1815" cx="0" cy="0" r="1" gradientUnits="userSpaceOnUse" gradientTransform="translate(131.335 404.256) rotate(9.31709) scale(260.931 260.93)">
<stop stop-color="#4CDF5E"/>
<stop offset="1" stop-color="#27AA37"/>
</radialGradient>
<radialGradient id="paint25_radial_74_1815" cx="0" cy="0" r="1" gradientUnits="userSpaceOnUse" gradientTransform="translate(131.335 404.256) rotate(9.31709) scale(260.931 260.93)">
<stop stop-color="#4CDF5E"/>
<stop offset="1" stop-color="#27AA37"/>
</radialGradient>
<radialGradient id="paint26_radial_74_1815" cx="0" cy="0" r="1" gradientUnits="userSpaceOnUse" gradientTransform="translate(131.335 404.256) rotate(9.31709) scale(260.931 260.93)">
<stop stop-color="#4CDF5E"/>
<stop offset="1" stop-color="#27AA37"/>
</radialGradient>
<radialGradient id="paint27_radial_74_1815" cx="0" cy="0" r="1" gradientUnits="userSpaceOnUse" gradientTransform="translate(131.335 404.256) rotate(9.31709) scale(260.931 260.93)">
<stop stop-color="#4CDF5E"/>
<stop offset="1" stop-color="#27AA37"/>
</radialGradient>
</defs>
</svg>
