<svg width="608" height="1087" viewBox="0 0 608 1087" fill="none" xmlns="http://www.w3.org/2000/svg">
<path d="M808 676C808 708.887 794.936 740.427 771.681 763.681C748.427 786.936 716.887 800 684 800C651.113 800 619.573 786.936 596.319 763.681C573.064 740.427 560 708.887 560 676L684 676H808Z" fill="url(#paint0_linear_74_1828)"/>
<path d="M808 552C808 584.887 794.936 616.427 771.681 639.681C748.427 662.936 716.887 676 684 676C651.113 676 619.573 662.936 596.319 639.681C573.064 616.427 560 584.887 560 552L808 552Z" fill="url(#paint1_linear_74_1828)"/>
<path d="M248 963C248 995.887 234.936 1027.43 211.681 1050.68C188.427 1073.94 156.887 1087 124 1087C91.1132 1087 59.5733 1073.94 36.3188 1050.68C13.0643 1027.43 4.96578e-06 995.887 0 963L124 963H248Z" fill="url(#paint2_linear_74_1828)"/>
<path d="M248 839C248 871.887 234.936 903.427 211.681 926.681C188.427 949.936 156.887 963 124 963C91.1132 963 59.5733 949.936 36.3188 926.681C13.0643 903.427 4.96578e-06 871.887 0 839L248 839Z" fill="url(#paint3_linear_74_1828)"/>
<path d="M528 124C528 156.887 514.936 188.427 491.681 211.681C468.427 234.936 436.887 248 404 248C371.113 248 339.573 234.936 316.319 211.681C293.064 188.427 280 156.887 280 124L404 124H528Z" fill="url(#paint4_linear_74_1828)"/>
<path d="M528 0C528 32.8868 514.936 64.4267 491.681 87.6812C468.427 110.936 436.887 124 404 124C371.113 124 339.573 110.936 316.319 87.6813C293.064 64.4267 280 32.8869 280 1.87235e-05L528 0Z" fill="url(#paint5_linear_74_1828)"/>
<path d="M404 404C404 387.716 400.793 371.592 394.561 356.547C388.329 341.503 379.196 327.833 367.681 316.319C356.167 304.804 342.497 295.671 327.453 289.439C312.408 283.207 296.284 280 280 280L280 404L404 404Z" fill="url(#paint6_linear_74_1828)"/>
<path d="M404 404C420.284 404 436.408 400.793 451.453 394.561C466.497 388.329 480.167 379.196 491.681 367.681C503.196 356.167 512.329 342.497 518.561 327.453C524.793 312.408 528 296.284 528 280H404L404 404Z" fill="url(#paint7_linear_74_1828)"/>
<path d="M404 404C404 420.284 407.207 436.408 413.439 451.453C419.671 466.497 428.804 480.167 440.319 491.681C451.833 503.196 465.503 512.329 480.547 518.561C495.592 524.793 511.716 528 528 528V404L404 404Z" fill="url(#paint8_linear_74_1828)"/>
<path d="M404 404C387.716 404 371.592 407.207 356.547 413.439C341.503 419.671 327.833 428.804 316.319 440.319C304.804 451.833 295.671 465.503 289.439 480.547C283.207 495.592 280 511.716 280 528L404 528L404 404Z" fill="url(#paint9_linear_74_1828)"/>
<path d="M684 342C684 376.242 656.242 404 622 404C587.758 404 560 376.242 560 342C560 307.758 587.758 280 622 280C656.242 280 684 307.758 684 342Z" fill="url(#paint10_radial_74_1828)"/>
<path d="M808 342C808 376.242 780.242 404 746 404C711.758 404 684 376.242 684 342C684 307.758 711.758 280 746 280C780.242 280 808 307.758 808 342Z" fill="url(#paint11_radial_74_1828)"/>
<path d="M808 466C808 500.242 780.242 528 746 528C711.758 528 684 500.242 684 466C684 431.758 711.758 404 746 404C780.242 404 808 431.758 808 466Z" fill="url(#paint12_radial_74_1828)"/>
<path d="M684 466C684 500.242 656.242 528 622 528C587.758 528 560 500.242 560 466C560 431.758 587.758 404 622 404C656.242 404 684 431.758 684 466Z" fill="url(#paint13_radial_74_1828)"/>
<path d="M746 404C746 438.242 718.242 466 684 466C649.758 466 622 438.242 622 404C622 369.758 649.758 342 684 342C718.242 342 746 369.758 746 404Z" fill="url(#paint14_radial_74_1828)"/>
<path d="M469.244 680.491C467.858 681.877 465.611 681.877 464.225 680.491L406.509 622.774C405.123 621.389 405.123 619.142 406.509 617.756L464.225 560.039C465.611 558.654 467.858 558.654 469.244 560.039L526.96 617.756C528.346 619.142 528.346 621.389 526.96 622.774L469.244 680.491Z" fill="url(#paint15_radial_74_1828)"/>
<path d="M338.756 680.491C340.142 681.877 342.389 681.877 343.774 680.491L401.491 622.774C402.877 621.389 402.877 619.142 401.491 617.756L343.774 560.039C342.389 558.654 340.142 558.654 338.756 560.039L281.039 617.756C279.654 619.142 279.654 621.389 281.039 622.774L338.756 680.491Z" fill="url(#paint16_radial_74_1828)"/>
<path d="M338.756 805.961C340.142 807.346 342.389 807.346 343.774 805.961L401.491 748.244C402.877 746.858 402.877 744.611 401.491 743.226L343.774 685.509C342.389 684.123 340.142 684.123 338.756 685.509L281.039 743.226C279.654 744.611 279.654 746.858 281.039 748.244L338.756 805.961Z" fill="url(#paint17_radial_74_1828)"/>
<path d="M464.225 805.961C465.611 807.346 467.858 807.346 469.244 805.961L526.96 748.244C528.346 746.858 528.346 744.611 526.96 743.226L469.244 685.509C467.858 684.123 465.611 684.123 464.225 685.509L406.509 743.226C405.123 744.611 405.123 746.858 406.509 748.244L464.225 805.961Z" fill="url(#paint18_radial_74_1828)"/>
<path d="M749.244 121.491C747.858 122.877 745.611 122.877 744.225 121.491L686.509 63.7745C685.123 62.3885 685.123 60.1416 686.509 58.7557L744.225 1.03943C745.611 -0.346479 747.858 -0.346473 749.244 1.03943L806.96 58.7557C808.346 60.1416 808.346 62.3886 806.96 63.7745L749.244 121.491Z" fill="url(#paint19_radial_74_1828)"/>
<path d="M618.756 121.491C620.142 122.877 622.389 122.877 623.774 121.491L681.491 63.7745C682.877 62.3885 682.877 60.1416 681.491 58.7557L623.774 1.03943C622.389 -0.346479 620.142 -0.346473 618.756 1.03943L561.039 58.7557C559.654 60.1416 559.654 62.3886 561.039 63.7745L618.756 121.491Z" fill="url(#paint20_radial_74_1828)"/>
<path d="M618.756 246.961C620.142 248.346 622.389 248.346 623.774 246.961L681.491 189.244C682.877 187.858 682.877 185.611 681.491 184.226L623.774 126.509C622.389 125.123 620.142 125.123 618.756 126.509L561.039 184.226C559.654 185.611 559.654 187.858 561.039 189.244L618.756 246.961Z" fill="url(#paint21_radial_74_1828)"/>
<path d="M744.225 246.961C745.611 248.346 747.858 248.346 749.244 246.961L806.96 189.244C808.346 187.858 808.346 185.611 806.96 184.226L749.244 126.509C747.858 125.123 745.611 125.123 744.225 126.509L686.509 184.226C685.123 185.611 685.123 187.858 686.509 189.244L744.225 246.961Z" fill="url(#paint22_radial_74_1828)"/>
<defs>
<linearGradient id="paint0_linear_74_1828" x1="684" y1="552" x2="684" y2="800" gradientUnits="userSpaceOnUse">
<stop stop-color="#FF6427"/>
<stop offset="1" stop-color="#FF3737"/>
</linearGradient>
<linearGradient id="paint1_linear_74_1828" x1="684" y1="552" x2="684" y2="676" gradientUnits="userSpaceOnUse">
<stop stop-color="#FF6427"/>
<stop offset="1" stop-color="#FF3737"/>
</linearGradient>
<linearGradient id="paint2_linear_74_1828" x1="124" y1="839" x2="124" y2="1087" gradientUnits="userSpaceOnUse">
<stop stop-color="#FF6427"/>
<stop offset="1" stop-color="#FF3737"/>
</linearGradient>
<linearGradient id="paint3_linear_74_1828" x1="124" y1="839" x2="124" y2="963" gradientUnits="userSpaceOnUse">
<stop stop-color="#FF6427"/>
<stop offset="1" stop-color="#FF3737"/>
</linearGradient>
<linearGradient id="paint4_linear_74_1828" x1="404" y1="0" x2="404" y2="248" gradientUnits="userSpaceOnUse">
<stop stop-color="#FF6427"/>
<stop offset="1" stop-color="#FF3737"/>
</linearGradient>
<linearGradient id="paint5_linear_74_1828" x1="404" y1="0" x2="404" y2="124" gradientUnits="userSpaceOnUse">
<stop stop-color="#FF6427"/>
<stop offset="1" stop-color="#FF3737"/>
</linearGradient>
<linearGradient id="paint6_linear_74_1828" x1="404" y1="280" x2="404" y2="528" gradientUnits="userSpaceOnUse">
<stop stop-color="#0C4DF0"/>
<stop offset="1" stop-color="#80A3F9"/>
</linearGradient>
<linearGradient id="paint7_linear_74_1828" x1="404" y1="280" x2="404" y2="528" gradientUnits="userSpaceOnUse">
<stop stop-color="#0C4DF0"/>
<stop offset="1" stop-color="#80A3F9"/>
</linearGradient>
<linearGradient id="paint8_linear_74_1828" x1="404" y1="280" x2="404" y2="528" gradientUnits="userSpaceOnUse">
<stop stop-color="#0C4DF0"/>
<stop offset="1" stop-color="#80A3F9"/>
</linearGradient>
<linearGradient id="paint9_linear_74_1828" x1="404" y1="280" x2="404" y2="528" gradientUnits="userSpaceOnUse">
<stop stop-color="#0C4DF0"/>
<stop offset="1" stop-color="#80A3F9"/>
</linearGradient>
<radialGradient id="paint10_radial_74_1828" cx="0" cy="0" r="1" gradientUnits="userSpaceOnUse" gradientTransform="translate(684 404) rotate(90) scale(124)">
<stop stop-color="#FB73B6"/>
<stop offset="1" stop-color="#F73C99"/>
</radialGradient>
<radialGradient id="paint11_radial_74_1828" cx="0" cy="0" r="1" gradientUnits="userSpaceOnUse" gradientTransform="translate(684 404) rotate(90) scale(124)">
<stop stop-color="#FB73B6"/>
<stop offset="1" stop-color="#F73C99"/>
</radialGradient>
<radialGradient id="paint12_radial_74_1828" cx="0" cy="0" r="1" gradientUnits="userSpaceOnUse" gradientTransform="translate(684 404) rotate(90) scale(124)">
<stop stop-color="#FB73B6"/>
<stop offset="1" stop-color="#F73C99"/>
</radialGradient>
<radialGradient id="paint13_radial_74_1828" cx="0" cy="0" r="1" gradientUnits="userSpaceOnUse" gradientTransform="translate(684 404) rotate(90) scale(124)">
<stop stop-color="#FB73B6"/>
<stop offset="1" stop-color="#F73C99"/>
</radialGradient>
<radialGradient id="paint14_radial_74_1828" cx="0" cy="0" r="1" gradientUnits="userSpaceOnUse" gradientTransform="translate(684 404) rotate(90) scale(124)">
<stop stop-color="#FB73B6"/>
<stop offset="1" stop-color="#F73C99"/>
</radialGradient>
<radialGradient id="paint15_radial_74_1828" cx="0" cy="0" r="1" gradientUnits="userSpaceOnUse" gradientTransform="translate(331.335 683.256) rotate(9.31709) scale(260.931 260.93)">
<stop stop-color="#4CDF5E"/>
<stop offset="1" stop-color="#27AA37"/>
</radialGradient>
<radialGradient id="paint16_radial_74_1828" cx="0" cy="0" r="1" gradientUnits="userSpaceOnUse" gradientTransform="translate(331.335 683.256) rotate(9.31709) scale(260.931 260.93)">
<stop stop-color="#4CDF5E"/>
<stop offset="1" stop-color="#27AA37"/>
</radialGradient>
<radialGradient id="paint17_radial_74_1828" cx="0" cy="0" r="1" gradientUnits="userSpaceOnUse" gradientTransform="translate(331.335 683.256) rotate(9.31709) scale(260.931 260.93)">
<stop stop-color="#4CDF5E"/>
<stop offset="1" stop-color="#27AA37"/>
</radialGradient>
<radialGradient id="paint18_radial_74_1828" cx="0" cy="0" r="1" gradientUnits="userSpaceOnUse" gradientTransform="translate(331.335 683.256) rotate(9.31709) scale(260.931 260.93)">
<stop stop-color="#4CDF5E"/>
<stop offset="1" stop-color="#27AA37"/>
</radialGradient>
<radialGradient id="paint19_radial_74_1828" cx="0" cy="0" r="1" gradientUnits="userSpaceOnUse" gradientTransform="translate(611.335 124.256) rotate(9.31709) scale(260.931 260.93)">
<stop stop-color="#4CDF5E"/>
<stop offset="1" stop-color="#27AA37"/>
</radialGradient>
<radialGradient id="paint20_radial_74_1828" cx="0" cy="0" r="1" gradientUnits="userSpaceOnUse" gradientTransform="translate(611.335 124.256) rotate(9.31709) scale(260.931 260.93)">
<stop stop-color="#4CDF5E"/>
<stop offset="1" stop-color="#27AA37"/>
</radialGradient>
<radialGradient id="paint21_radial_74_1828" cx="0" cy="0" r="1" gradientUnits="userSpaceOnUse" gradientTransform="translate(611.335 124.256) rotate(9.31709) scale(260.931 260.93)">
<stop stop-color="#4CDF5E"/>
<stop offset="1" stop-color="#27AA37"/>
</radialGradient>
<radialGradient id="paint22_radial_74_1828" cx="0" cy="0" r="1" gradientUnits="userSpaceOnUse" gradientTransform="translate(611.335 124.256) rotate(9.31709) scale(260.931 260.93)">
<stop stop-color="#4CDF5E"/>
<stop offset="1" stop-color="#27AA37"/>
</radialGradient>
</defs>
</svg>
